<svg width="128" height="81" viewBox="0 0 128 81" fill="none" xmlns="http://www.w3.org/2000/svg">
<path fill-rule="evenodd" clip-rule="evenodd" d="M127.448 0.129883H0.885315V80.1104H127.448V0.129883ZM91.3471 38.2815H76.9431C77.0292 38.8819 77.0761 39.4943 77.0761 40.1182C77.0761 47.2371 71.2844 53.0282 64.166 53.0282C57.0477 53.0282 51.256 47.2365 51.256 40.1182C51.256 32.9998 57.0477 27.2081 64.166 27.2081C65.4426 27.2081 66.6756 27.3961 67.8404 27.7432V13.1223C66.6625 12.9638 65.4617 12.8793 64.2412 12.8761C49.196 12.8352 36.9659 24.9983 36.9245 40.0435C36.8831 55.0888 49.0467 67.3189 64.0919 67.3603C79.1372 67.4017 91.3673 55.2386 91.4087 40.1928C91.4103 39.5504 91.3896 38.913 91.3477 38.2815H91.3471ZM74.6177 38.2822H64.1666V50.733C70.0187 50.7324 74.7801 45.9716 74.7801 40.1189C74.7801 39.4923 74.7223 38.8794 74.6177 38.2822Z" fill="white"/>
</svg>
