<svg width="100" height="100" viewBox="0 0 100 100" fill="none" xmlns="http://www.w3.org/2000/svg">
<path fill-rule="evenodd" clip-rule="evenodd" d="M100.506 0.129883H0.506409V100.13H100.506V0.129883ZM84.4821 47.8341H66.4771C66.5847 48.5846 66.6433 49.3501 66.6433 50.1299C66.6433 59.0285 59.4037 66.2674 50.5057 66.2674C41.6078 66.2674 34.3682 59.0278 34.3682 50.1299C34.3682 41.2319 41.6078 33.9923 50.5057 33.9923C52.1014 33.9923 53.6426 34.2273 55.0987 34.6611V16.3851C53.6263 16.1869 52.1253 16.0813 50.5997 16.0773C31.7931 16.0262 16.5055 31.23 16.4538 50.0366C16.402 68.8432 31.6065 84.1307 50.4131 84.1825C69.2197 84.2343 84.5073 69.0304 84.559 50.2232C84.5611 49.4202 84.5352 48.6234 84.4827 47.8341H84.4821ZM63.5703 47.8349H50.5064V63.3984C57.8216 63.3977 63.7733 57.4466 63.7733 50.1308C63.7733 49.3476 63.7011 48.5814 63.5703 47.8349Z" fill="#ffffff"/>
</svg>
