<svg width="55" height="55" viewBox="0 0 55 55" fill="none" xmlns="http://www.w3.org/2000/svg">
<path fill-rule="evenodd" clip-rule="evenodd" d="M40.0187 25.4055H54.4227H54.4233C54.4652 26.037 54.4859 26.6745 54.4843 27.3168C54.4429 42.3626 42.2128 54.5257 27.1676 54.4843C12.1223 54.4429 -0.0413026 42.2128 0.000105409 27.1676C0.0415134 12.1223 12.2716 -0.0407605 27.3168 0.000102662C28.5373 0.00337171 29.7381 0.0878222 30.9161 0.246371V14.8672C29.7512 14.5201 28.5182 14.3322 27.2417 14.3322C20.1233 14.3322 14.3316 20.1238 14.3316 27.2422C14.3316 34.3606 20.1233 40.1522 27.2417 40.1522C34.36 40.1522 40.1517 34.3611 40.1517 27.2422C40.1517 26.6184 40.1048 26.006 40.0187 25.4055ZM27.2422 25.4062H37.6933C37.798 26.0034 37.8557 26.6163 37.8557 27.2429C37.8557 33.0956 33.0943 37.8564 27.2422 37.857V25.4062Z" fill="#4C4C4C"/>
</svg>
